<svg width="102" height="103" viewBox="0 0 102 103" fill="none" xmlns="http://www.w3.org/2000/svg">
<g clip-path="url(#clip0_4_41)">
<path d="M88.2549 0H13.7453C6.1545 0 0.000637054 6.21394 0.000637054 13.8795V89.12C0.000637054 96.7856 6.15425 103 13.7453 103H50.4931L50.5557 66.1931H41.0863C39.8557 66.1931 38.8568 65.1882 38.8521 63.9455L38.8067 52.0813C38.8019 50.8318 39.8038 49.8164 41.0411 49.8164H50.4934V38.3525C50.4934 25.0488 58.5396 17.8048 70.2921 17.8048H79.936C81.1699 17.8048 82.1704 18.8149 82.1704 20.0612V30.0651C82.1704 31.3109 81.1706 32.3207 79.9372 32.3215L74.0189 32.3243C67.6275 32.3243 66.3899 35.3912 66.3899 39.892V49.8166H80.434C81.7722 49.8166 82.8104 50.9966 82.6527 52.3385L81.2602 64.2028C81.1269 65.3381 80.1735 66.1936 79.0415 66.1936H66.4525L66.3899 103H88.2554C95.8463 103 102 96.7861 102 89.1208V13.8795C102 6.21394 95.846 0 88.2549 0Z" fill="white"/>
</g>
<defs>
<clipPath id="clip0_4_41">
<rect width="102" height="103" fill="white"/>
</clipPath>
</defs>
</svg>
