<svg width="124" height="37" viewBox="0 0 124 37" fill="none" xmlns="http://www.w3.org/2000/svg">
<path d="M90.3793 1.09094H98.6463L106.607 16.125H106.947L114.908 1.09094H123.175L110.442 23.6591V36H103.112V23.6591L90.3793 1.09094Z" fill="#340202"/>
<path d="M89.0667 18.5455C89.0667 22.3523 88.3452 25.5909 86.902 28.2614C85.4702 30.9318 83.5156 32.9716 81.0383 34.3807C78.5724 35.7784 75.7997 36.4773 72.7202 36.4773C69.6179 36.4773 66.8338 35.7727 64.3679 34.3636C61.902 32.9546 59.9531 30.9148 58.5213 28.2443C57.0895 25.5739 56.3736 22.3409 56.3736 18.5455C56.3736 14.7386 57.0895 11.5 58.5213 8.82956C59.9531 6.1591 61.902 4.12501 64.3679 2.72729C66.8338 1.31819 69.6179 0.613647 72.7202 0.613647C75.7997 0.613647 78.5724 1.31819 81.0383 2.72729C83.5156 4.12501 85.4702 6.1591 86.902 8.82956C88.3452 11.5 89.0667 14.7386 89.0667 18.5455ZM81.5838 18.5455C81.5838 16.0796 81.2145 14 80.4758 12.3068C79.7486 10.6136 78.7202 9.32956 77.3906 8.45456C76.0611 7.57956 74.5042 7.14206 72.7202 7.14206C70.9361 7.14206 69.3792 7.57956 68.0497 8.45456C66.7202 9.32956 65.6861 10.6136 64.9474 12.3068C64.2202 14 63.8565 16.0796 63.8565 18.5455C63.8565 21.0114 64.2202 23.0909 64.9474 24.7841C65.6861 26.4773 66.7202 27.7614 68.0497 28.6364C69.3792 29.5114 70.9361 29.9489 72.7202 29.9489C74.5042 29.9489 76.0611 29.5114 77.3906 28.6364C78.7202 27.7614 79.7486 26.4773 80.4758 24.7841C81.2145 23.0909 81.5838 21.0114 81.5838 18.5455Z" fill="#340202"/>
<path d="M31.1122 36V1.09094H38.4929V29.9148H53.4588V36H31.1122Z" fill="#340202"/>
<path d="M0.0340881 36V1.09094H13.8068C16.4545 1.09094 18.7102 1.59662 20.5739 2.60799C22.4375 3.60799 23.858 5.00003 24.8352 6.78412C25.8239 8.55685 26.3182 10.6023 26.3182 12.9205C26.3182 15.2387 25.8182 17.2841 24.8182 19.0569C23.8182 20.8296 22.3693 22.2103 20.4716 23.1989C18.5852 24.1875 16.3011 24.6819 13.6193 24.6819H4.84091V18.7671H12.4261C13.8466 18.7671 15.017 18.5228 15.9375 18.0341C16.8693 17.5341 17.5625 16.8466 18.017 15.9716C18.483 15.0853 18.7159 14.0682 18.7159 12.9205C18.7159 11.7614 18.483 10.75 18.017 9.8864C17.5625 9.0114 16.8693 8.33526 15.9375 7.85799C15.0057 7.36935 13.8239 7.12503 12.392 7.12503H7.41477V36H0.0340881Z" fill="#340202"/>
</svg>
