<svg width="114" height="113" viewBox="0 0 114 113" fill="none" xmlns="http://www.w3.org/2000/svg">
<path d="M59.337 3.63369C65.1688 3.54541 70.9579 3.59132 76.7434 3.54541C76.9357 10.7174 79.8712 17.1725 84.5417 21.9538L84.5345 21.9468C89.5612 26.435 96.102 29.3447 103.312 29.8391L103.412 29.8462V47.6295C96.6007 47.46 90.1954 45.9028 84.4205 43.2261L84.7127 43.3461C81.9197 42.0148 79.5577 40.6483 77.3134 39.1228L77.4986 39.2428C77.4559 52.1284 77.5414 65.0139 77.4095 77.8535C77.0426 84.3969 74.8481 90.3647 71.3284 95.3473L71.3996 95.2379C65.5144 103.593 55.9811 109.077 45.1404 109.402H45.0906C44.6524 109.423 44.1358 109.433 43.6157 109.433C37.4526 109.433 31.692 107.731 26.7829 104.776L26.9254 104.857C17.9906 99.5283 11.8275 90.4106 10.6875 79.8063L10.6732 79.6615C10.5842 77.4545 10.5414 75.2474 10.6305 73.0863C12.3761 56.2105 26.6404 43.1554 43.9791 43.1554C45.9277 43.1554 47.8372 43.3214 49.6933 43.6357L49.4938 43.6074C49.5829 50.1367 49.3157 56.6695 49.3157 63.1988C47.8087 62.6585 46.0702 62.3443 44.2569 62.3443C37.6022 62.3443 31.9414 66.5606 29.8466 72.4472L29.8146 72.5531C29.3407 74.0609 29.0664 75.7948 29.0664 77.5887C29.0664 78.3161 29.1127 79.0365 29.1982 79.7427L29.1911 79.658C30.3739 86.8829 36.6225 92.3352 44.1572 92.3352C44.3745 92.3352 44.5882 92.3316 44.802 92.321H44.7699C49.9819 92.1657 54.5062 89.3866 57.0641 85.2797L57.0997 85.2162C58.0509 83.9025 58.7029 82.3135 58.9202 80.5867L58.9237 80.5373C59.3691 72.6379 59.1909 64.7844 59.2337 56.8849C59.2764 39.1016 59.1909 21.3606 59.3227 3.6231L59.337 3.63369Z" fill="white"/>
</svg>
