<svg width="148" height="131" viewBox="0 0 148 131" fill="none" xmlns="http://www.w3.org/2000/svg">
<path d="M142.231 27.3178C136.889 21.6966 127.026 19.4037 108.188 19.4037H39.8101C20.5419 19.4037 10.5113 21.8445 5.18907 27.8291C0 33.6641 0 42.2615 0 54.1605V76.84C0 99.8922 6.1568 111.596 39.8101 111.596H108.189C124.524 111.596 133.576 109.573 139.432 104.612C145.438 99.5254 148 91.2196 148 76.84V54.1605C148 41.612 147.598 32.9639 142.231 27.3178ZM95.0165 68.6314L63.9661 82.9953C63.2719 83.3165 62.5128 83.4758 61.7547 83.4758C60.8963 83.4758 60.0398 83.2712 59.2812 82.8647C57.8527 82.0986 56.9805 80.7282 56.9805 79.25V50.6142C56.9805 49.1386 57.8503 47.7694 59.2759 47.0028C60.702 46.2363 62.4756 46.1839 63.9551 46.8642L95.0055 61.1356C96.5853 61.8616 97.5774 63.3052 97.5797 64.8801C97.5816 66.4564 96.5939 67.902 95.0165 68.6314Z" fill="white"/>
</svg>
